<mxfile host="app.diagrams.net" agent="Mozilla/5.0 (Windows NT 10.0; Win64; x64) AppleWebKit/537.36 (KHTML, like Gecko) Chrome/136.0.0.0 Safari/537.36 Edg/136.0.0.0" version="27.0.8">
  <diagram name="Страница — 1" id="k5TO0UwuvHj6DH6PcWR8">
    <mxGraphModel dx="1697" dy="715" grid="1" gridSize="10" guides="1" tooltips="1" connect="1" arrows="1" fold="1" page="1" pageScale="1" pageWidth="1654" pageHeight="1169" math="0" shadow="0">
      <root>
        <mxCell id="0" />
        <mxCell id="1" parent="0" />
        <mxCell id="qSyDH7vqsRPsyZRCkr0u-2" value="Пользователь" style="shape=umlActor;verticalLabelPosition=bottom;verticalAlign=top;html=1;outlineConnect=0;" vertex="1" parent="1">
          <mxGeometry x="370" y="200" width="30" height="60" as="geometry" />
        </mxCell>
        <mxCell id="qSyDH7vqsRPsyZRCkr0u-3" value="AddingOrderPage&amp;nbsp;" style="rounded=0;whiteSpace=wrap;html=1;" vertex="1" parent="1">
          <mxGeometry x="520" y="220" width="110" height="40" as="geometry" />
        </mxCell>
        <mxCell id="qSyDH7vqsRPsyZRCkr0u-4" value="AddingOrder&lt;div&gt;PageViewModel&amp;nbsp;&lt;/div&gt;" style="rounded=0;whiteSpace=wrap;html=1;" vertex="1" parent="1">
          <mxGeometry x="717" y="220" width="110" height="40" as="geometry" />
        </mxCell>
        <mxCell id="qSyDH7vqsRPsyZRCkr0u-5" value="DataBaseContext&amp;nbsp;" style="rounded=0;whiteSpace=wrap;html=1;" vertex="1" parent="1">
          <mxGeometry x="880" y="220" width="110" height="40" as="geometry" />
        </mxCell>
        <mxCell id="qSyDH7vqsRPsyZRCkr0u-6" value="NavigationService&amp;nbsp;" style="rounded=0;whiteSpace=wrap;html=1;" vertex="1" parent="1">
          <mxGeometry x="1060" y="220" width="110" height="40" as="geometry" />
        </mxCell>
        <mxCell id="qSyDH7vqsRPsyZRCkr0u-7" value="CustomMessageBox&amp;nbsp;" style="rounded=0;whiteSpace=wrap;html=1;" vertex="1" parent="1">
          <mxGeometry x="1240" y="220" width="110" height="40" as="geometry" />
        </mxCell>
        <mxCell id="qSyDH7vqsRPsyZRCkr0u-8" value="" style="endArrow=none;dashed=1;html=1;rounded=0;" edge="1" parent="1">
          <mxGeometry width="50" height="50" relative="1" as="geometry">
            <mxPoint x="390" y="300" as="sourcePoint" />
            <mxPoint x="390" y="600" as="targetPoint" />
          </mxGeometry>
        </mxCell>
        <mxCell id="qSyDH7vqsRPsyZRCkr0u-9" value="" style="endArrow=none;dashed=1;html=1;rounded=0;" edge="1" parent="1">
          <mxGeometry width="50" height="50" relative="1" as="geometry">
            <mxPoint x="574.52" y="284" as="sourcePoint" />
            <mxPoint x="575" y="670" as="targetPoint" />
          </mxGeometry>
        </mxCell>
        <mxCell id="qSyDH7vqsRPsyZRCkr0u-10" value="" style="endArrow=none;dashed=1;html=1;rounded=0;" edge="1" parent="1">
          <mxGeometry width="50" height="50" relative="1" as="geometry">
            <mxPoint x="760" y="609.9999999999995" as="sourcePoint" />
            <mxPoint x="760" y="610" as="targetPoint" />
          </mxGeometry>
        </mxCell>
        <mxCell id="qSyDH7vqsRPsyZRCkr0u-11" value="" style="endArrow=none;dashed=1;html=1;rounded=0;" edge="1" parent="1">
          <mxGeometry width="50" height="50" relative="1" as="geometry">
            <mxPoint x="934.52" y="280" as="sourcePoint" />
            <mxPoint x="930" y="890.592628761574" as="targetPoint" />
          </mxGeometry>
        </mxCell>
        <mxCell id="qSyDH7vqsRPsyZRCkr0u-12" value="" style="endArrow=none;dashed=1;html=1;rounded=0;" edge="1" parent="1">
          <mxGeometry width="50" height="50" relative="1" as="geometry">
            <mxPoint x="1114.52" y="270" as="sourcePoint" />
            <mxPoint x="1120" y="720" as="targetPoint" />
          </mxGeometry>
        </mxCell>
        <mxCell id="qSyDH7vqsRPsyZRCkr0u-13" value="" style="endArrow=none;dashed=1;html=1;rounded=0;" edge="1" parent="1">
          <mxGeometry width="50" height="50" relative="1" as="geometry">
            <mxPoint x="1294.52" y="270" as="sourcePoint" />
            <mxPoint x="1295" y="710" as="targetPoint" />
          </mxGeometry>
        </mxCell>
        <mxCell id="qSyDH7vqsRPsyZRCkr0u-14" value="" style="endArrow=classic;html=1;rounded=0;" edge="1" parent="1">
          <mxGeometry width="50" height="50" relative="1" as="geometry">
            <mxPoint x="390" y="320" as="sourcePoint" />
            <mxPoint x="569" y="320" as="targetPoint" />
          </mxGeometry>
        </mxCell>
        <mxCell id="qSyDH7vqsRPsyZRCkr0u-17" value="Заполняет форму заказа" style="text;html=1;align=center;verticalAlign=middle;whiteSpace=wrap;rounded=0;" vertex="1" parent="1">
          <mxGeometry x="400" y="290" width="150" height="30" as="geometry" />
        </mxCell>
        <mxCell id="qSyDH7vqsRPsyZRCkr0u-18" value="" style="endArrow=classic;html=1;rounded=0;entryX=0.107;entryY=0.885;entryDx=0;entryDy=0;entryPerimeter=0;" edge="1" parent="1">
          <mxGeometry width="50" height="50" relative="1" as="geometry">
            <mxPoint x="388.93" y="364.6" as="sourcePoint" />
            <mxPoint x="570.0000000000001" y="365.4" as="targetPoint" />
          </mxGeometry>
        </mxCell>
        <mxCell id="qSyDH7vqsRPsyZRCkr0u-19" value="Нажимает кнопку &quot;Оформить заказ&quot;" style="text;html=1;align=center;verticalAlign=middle;whiteSpace=wrap;rounded=0;" vertex="1" parent="1">
          <mxGeometry x="388.93" y="334.6" width="160" height="30" as="geometry" />
        </mxCell>
        <mxCell id="qSyDH7vqsRPsyZRCkr0u-20" value="" style="endArrow=classic;html=1;rounded=0;" edge="1" parent="1">
          <mxGeometry width="50" height="50" relative="1" as="geometry">
            <mxPoint x="570" y="380" as="sourcePoint" />
            <mxPoint x="760" y="380" as="targetPoint" />
          </mxGeometry>
        </mxCell>
        <mxCell id="qSyDH7vqsRPsyZRCkr0u-21" value="Вызов команды FinishCommand" style="text;html=1;align=center;verticalAlign=middle;whiteSpace=wrap;rounded=0;" vertex="1" parent="1">
          <mxGeometry x="580" y="350" width="160" height="30" as="geometry" />
        </mxCell>
        <mxCell id="qSyDH7vqsRPsyZRCkr0u-22" value="" style="rounded=0;whiteSpace=wrap;html=1;" vertex="1" parent="1">
          <mxGeometry x="570" y="270" width="10" height="130" as="geometry" />
        </mxCell>
        <mxCell id="qSyDH7vqsRPsyZRCkr0u-24" value="" style="endArrow=none;html=1;rounded=0;exitX=1.115;exitY=0.55;exitDx=0;exitDy=0;exitPerimeter=0;" edge="1" parent="1">
          <mxGeometry width="50" height="50" relative="1" as="geometry">
            <mxPoint x="769.9999999999999" y="420" as="sourcePoint" />
            <mxPoint x="868.85" y="422" as="targetPoint" />
          </mxGeometry>
        </mxCell>
        <mxCell id="qSyDH7vqsRPsyZRCkr0u-25" value="" style="endArrow=none;html=1;rounded=0;" edge="1" parent="1">
          <mxGeometry width="50" height="50" relative="1" as="geometry">
            <mxPoint x="868.85" y="422" as="sourcePoint" />
            <mxPoint x="868.85" y="442" as="targetPoint" />
          </mxGeometry>
        </mxCell>
        <mxCell id="qSyDH7vqsRPsyZRCkr0u-27" value="" style="endArrow=classic;html=1;rounded=0;entryX=1.293;entryY=0.679;entryDx=0;entryDy=0;entryPerimeter=0;" edge="1" parent="1">
          <mxGeometry width="50" height="50" relative="1" as="geometry">
            <mxPoint x="868.85" y="442" as="sourcePoint" />
            <mxPoint x="771.7800000000001" y="440.64" as="targetPoint" />
          </mxGeometry>
        </mxCell>
        <mxCell id="qSyDH7vqsRPsyZRCkr0u-28" value="Проверка валидности данных (ValidateObject)" style="text;html=1;align=center;verticalAlign=middle;whiteSpace=wrap;rounded=0;" vertex="1" parent="1">
          <mxGeometry x="780" y="390" width="150" height="30" as="geometry" />
        </mxCell>
        <mxCell id="qSyDH7vqsRPsyZRCkr0u-29" value="" style="endArrow=none;html=1;rounded=0;exitX=1.115;exitY=0.55;exitDx=0;exitDy=0;exitPerimeter=0;" edge="1" parent="1">
          <mxGeometry width="50" height="50" relative="1" as="geometry">
            <mxPoint x="770" y="488" as="sourcePoint" />
            <mxPoint x="868.8500000000001" y="490" as="targetPoint" />
          </mxGeometry>
        </mxCell>
        <mxCell id="qSyDH7vqsRPsyZRCkr0u-30" value="" style="endArrow=none;html=1;rounded=0;" edge="1" parent="1">
          <mxGeometry width="50" height="50" relative="1" as="geometry">
            <mxPoint x="868.8500000000001" y="490" as="sourcePoint" />
            <mxPoint x="868.8500000000001" y="510" as="targetPoint" />
          </mxGeometry>
        </mxCell>
        <mxCell id="qSyDH7vqsRPsyZRCkr0u-31" value="" style="endArrow=classic;html=1;rounded=0;entryX=1.293;entryY=0.679;entryDx=0;entryDy=0;entryPerimeter=0;" edge="1" parent="1">
          <mxGeometry width="50" height="50" relative="1" as="geometry">
            <mxPoint x="868.8500000000001" y="510" as="sourcePoint" />
            <mxPoint x="771.7800000000002" y="508.64" as="targetPoint" />
          </mxGeometry>
        </mxCell>
        <mxCell id="qSyDH7vqsRPsyZRCkr0u-32" value="Проверка наличия товаров в заказе" style="text;html=1;align=center;verticalAlign=middle;whiteSpace=wrap;rounded=0;" vertex="1" parent="1">
          <mxGeometry x="780.0000000000001" y="458" width="150" height="30" as="geometry" />
        </mxCell>
        <mxCell id="qSyDH7vqsRPsyZRCkr0u-33" value="" style="endArrow=classic;html=1;rounded=0;" edge="1" parent="1">
          <mxGeometry width="50" height="50" relative="1" as="geometry">
            <mxPoint x="759" y="550" as="sourcePoint" />
            <mxPoint x="400" y="550" as="targetPoint" />
          </mxGeometry>
        </mxCell>
        <mxCell id="qSyDH7vqsRPsyZRCkr0u-34" value="&amp;nbsp;Показывает ошибки валидации" style="text;html=1;align=center;verticalAlign=middle;whiteSpace=wrap;rounded=0;" vertex="1" parent="1">
          <mxGeometry x="590" y="520" width="160" height="30" as="geometry" />
        </mxCell>
        <mxCell id="qSyDH7vqsRPsyZRCkr0u-37" value="" style="endArrow=none;dashed=1;html=1;rounded=0;" edge="1" parent="1" target="qSyDH7vqsRPsyZRCkr0u-36">
          <mxGeometry width="50" height="50" relative="1" as="geometry">
            <mxPoint x="760" y="280" as="sourcePoint" />
            <mxPoint x="760" y="580" as="targetPoint" />
            <Array as="points">
              <mxPoint x="765" y="960" />
            </Array>
          </mxGeometry>
        </mxCell>
        <mxCell id="qSyDH7vqsRPsyZRCkr0u-36" value="" style="rounded=0;whiteSpace=wrap;html=1;" vertex="1" parent="1">
          <mxGeometry x="760" y="320" width="10" height="500" as="geometry" />
        </mxCell>
        <mxCell id="qSyDH7vqsRPsyZRCkr0u-38" value="" style="endArrow=classic;html=1;rounded=0;entryX=-0.25;entryY=0.165;entryDx=0;entryDy=0;entryPerimeter=0;" edge="1" parent="1" target="qSyDH7vqsRPsyZRCkr0u-51">
          <mxGeometry width="50" height="50" relative="1" as="geometry">
            <mxPoint x="770" y="589.26" as="sourcePoint" />
            <mxPoint x="960" y="589.26" as="targetPoint" />
          </mxGeometry>
        </mxCell>
        <mxCell id="qSyDH7vqsRPsyZRCkr0u-39" value="Открытие подключения к БД" style="text;html=1;align=center;verticalAlign=middle;whiteSpace=wrap;rounded=0;" vertex="1" parent="1">
          <mxGeometry x="780" y="559.26" width="160" height="30" as="geometry" />
        </mxCell>
        <mxCell id="qSyDH7vqsRPsyZRCkr0u-40" value="" style="endArrow=classic;html=1;rounded=0;entryX=0.15;entryY=0.305;entryDx=0;entryDy=0;entryPerimeter=0;" edge="1" parent="1" target="qSyDH7vqsRPsyZRCkr0u-51">
          <mxGeometry width="50" height="50" relative="1" as="geometry">
            <mxPoint x="770" y="630" as="sourcePoint" />
            <mxPoint x="960" y="630" as="targetPoint" />
          </mxGeometry>
        </mxCell>
        <mxCell id="qSyDH7vqsRPsyZRCkr0u-41" value="&amp;nbsp;Добавление Order" style="text;html=1;align=center;verticalAlign=middle;whiteSpace=wrap;rounded=0;" vertex="1" parent="1">
          <mxGeometry x="780" y="600" width="160" height="30" as="geometry" />
        </mxCell>
        <mxCell id="qSyDH7vqsRPsyZRCkr0u-42" value="" style="endArrow=none;dashed=1;html=1;rounded=0;" edge="1" parent="1">
          <mxGeometry width="50" height="50" relative="1" as="geometry">
            <mxPoint x="760" y="699.9999999999995" as="sourcePoint" />
            <mxPoint x="760" y="700" as="targetPoint" />
          </mxGeometry>
        </mxCell>
        <mxCell id="qSyDH7vqsRPsyZRCkr0u-43" value="" style="endArrow=classic;html=1;rounded=0;entryX=0.915;entryY=0.994;entryDx=0;entryDy=0;entryPerimeter=0;" edge="1" parent="1" target="qSyDH7vqsRPsyZRCkr0u-44">
          <mxGeometry width="50" height="50" relative="1" as="geometry">
            <mxPoint x="770" y="679.26" as="sourcePoint" />
            <mxPoint x="960" y="679.26" as="targetPoint" />
          </mxGeometry>
        </mxCell>
        <mxCell id="qSyDH7vqsRPsyZRCkr0u-44" value="Получение существующего Order" style="text;html=1;align=center;verticalAlign=middle;whiteSpace=wrap;rounded=0;" vertex="1" parent="1">
          <mxGeometry x="780" y="649.26" width="160" height="30" as="geometry" />
        </mxCell>
        <mxCell id="qSyDH7vqsRPsyZRCkr0u-45" value="" style="endArrow=classic;html=1;rounded=0;entryX=0.918;entryY=0.982;entryDx=0;entryDy=0;entryPerimeter=0;" edge="1" parent="1" target="qSyDH7vqsRPsyZRCkr0u-46">
          <mxGeometry width="50" height="50" relative="1" as="geometry">
            <mxPoint x="770" y="720" as="sourcePoint" />
            <mxPoint x="960" y="720" as="targetPoint" />
          </mxGeometry>
        </mxCell>
        <mxCell id="qSyDH7vqsRPsyZRCkr0u-46" value="Обновление полей и OrderItems" style="text;html=1;align=center;verticalAlign=middle;whiteSpace=wrap;rounded=0;" vertex="1" parent="1">
          <mxGeometry x="780" y="690" width="160" height="30" as="geometry" />
        </mxCell>
        <mxCell id="qSyDH7vqsRPsyZRCkr0u-47" value="" style="endArrow=none;html=1;rounded=0;exitX=1.115;exitY=0.55;exitDx=0;exitDy=0;exitPerimeter=0;" edge="1" parent="1">
          <mxGeometry width="50" height="50" relative="1" as="geometry">
            <mxPoint x="940" y="780" as="sourcePoint" />
            <mxPoint x="1038.8500000000001" y="782" as="targetPoint" />
          </mxGeometry>
        </mxCell>
        <mxCell id="qSyDH7vqsRPsyZRCkr0u-48" value="" style="endArrow=none;html=1;rounded=0;" edge="1" parent="1">
          <mxGeometry width="50" height="50" relative="1" as="geometry">
            <mxPoint x="1038.8500000000001" y="782" as="sourcePoint" />
            <mxPoint x="1038.8500000000001" y="802" as="targetPoint" />
          </mxGeometry>
        </mxCell>
        <mxCell id="qSyDH7vqsRPsyZRCkr0u-49" value="" style="endArrow=classic;html=1;rounded=0;entryX=1.293;entryY=0.679;entryDx=0;entryDy=0;entryPerimeter=0;" edge="1" parent="1">
          <mxGeometry width="50" height="50" relative="1" as="geometry">
            <mxPoint x="1038.8500000000001" y="802" as="sourcePoint" />
            <mxPoint x="941.7800000000002" y="800.64" as="targetPoint" />
          </mxGeometry>
        </mxCell>
        <mxCell id="qSyDH7vqsRPsyZRCkr0u-50" value="&amp;nbsp;Сохранение изменений (SaveChanges)" style="text;html=1;align=center;verticalAlign=middle;whiteSpace=wrap;rounded=0;" vertex="1" parent="1">
          <mxGeometry x="950" y="750" width="150" height="30" as="geometry" />
        </mxCell>
        <mxCell id="qSyDH7vqsRPsyZRCkr0u-51" value="" style="rounded=0;whiteSpace=wrap;html=1;" vertex="1" parent="1">
          <mxGeometry x="930" y="545" width="10" height="275" as="geometry" />
        </mxCell>
        <mxCell id="qSyDH7vqsRPsyZRCkr0u-52" value="" style="endArrow=classic;html=1;rounded=0;" edge="1" parent="1">
          <mxGeometry width="50" height="50" relative="1" as="geometry">
            <mxPoint x="940" y="584.55" as="sourcePoint" />
            <mxPoint x="1120" y="585" as="targetPoint" />
          </mxGeometry>
        </mxCell>
        <mxCell id="qSyDH7vqsRPsyZRCkr0u-53" value="Показывает сообщение &quot;Успех!&quot;" style="text;html=1;align=center;verticalAlign=middle;whiteSpace=wrap;rounded=0;" vertex="1" parent="1">
          <mxGeometry x="950" y="554.55" width="160" height="30" as="geometry" />
        </mxCell>
        <mxCell id="qSyDH7vqsRPsyZRCkr0u-54" value="" style="endArrow=classic;html=1;rounded=0;" edge="1" parent="1">
          <mxGeometry width="50" height="50" relative="1" as="geometry">
            <mxPoint x="940" y="630" as="sourcePoint" />
            <mxPoint x="1300" y="630" as="targetPoint" />
          </mxGeometry>
        </mxCell>
        <mxCell id="qSyDH7vqsRPsyZRCkr0u-55" value="Переход на AdminOrdersPage" style="text;html=1;align=center;verticalAlign=middle;whiteSpace=wrap;rounded=0;" vertex="1" parent="1">
          <mxGeometry x="950" y="600" width="160" height="30" as="geometry" />
        </mxCell>
      </root>
    </mxGraphModel>
  </diagram>
</mxfile>
